<?xml version="1.0" encoding="utf-8"?>
<!-- Generator: Adobe Illustrator 19.0.0, SVG Export Plug-In . SVG Version: 6.00 Build 0)  -->
<svg version="1.1" id="Layer_1" xmlns="http://www.w3.org/2000/svg" xmlns:xlink="http://www.w3.org/1999/xlink" x="0px" y="0px"
	 viewBox="-33 35 32 32" style="enable-background:new -33 35 32 32;" xml:space="preserve">
<style type="text/css">
	.st0{fill:#FFFFFF;}
</style>
<path id="facebook_1_" class="st0" d="M-2.8,35h-28.3c-1,0-1.8,0.8-1.8,1.8v28.3c0,1,0.8,1.8,1.8,1.8h28.3c1,0,1.8-0.8,1.8-1.8V36.8
	C-1,35.8-1.8,35-2.8,35z M-5.8,52.9h-4.4v11.8h-4.5V52.9h-3.1v-4.2h3.1c0,0,0-1.7,0-3.6c0-2.8,1.8-5.5,6.1-5.5c1.7,0,3,0.2,3,0.2
	l-0.1,4c0,0-1.3,0-2.7,0c-1.5,0-1.8,0.7-1.8,1.9c0,0.1,0,0.2,0,0.2c0,0.3,0,1.1,0,2.9h4.6L-5.8,52.9z"/>
</svg>
