<?xml version="1.0" encoding="utf-8"?>
<!-- Generator: Adobe Illustrator 19.0.0, SVG Export Plug-In . SVG Version: 6.00 Build 0)  -->
<svg version="1.1" id="Layer_1" xmlns="http://www.w3.org/2000/svg" xmlns:xlink="http://www.w3.org/1999/xlink" x="0px" y="0px"
	 viewBox="-33 35 32 32" style="enable-background:new -33 35 32 32;" xml:space="preserve">
<style type="text/css">
	.st0{fill:#FFFFFF;}
</style>
<path id="instagram_1_" class="st0" d="M-4.1,35h-25.8c-1.7,0-3.1,1.4-3.1,3.1v25.8c0,1.7,1.4,3.1,3.1,3.1h25.8
	c1.7,0,3.1-1.4,3.1-3.1V38.1C-1,36.4-2.4,35-4.1,35z M-17,44.8c3.4,0,6.2,2.8,6.2,6.2c0,3.4-2.8,6.2-6.2,6.2s-6.2-2.8-6.2-6.2
	C-23.2,47.6-20.4,44.8-17,44.8z M-4.7,62.1c0,0.7-0.6,1.2-1.2,1.2h-22.2c-0.7,0-1.2-0.6-1.2-1.2V48.5h2.8c-0.2,0.8-0.3,1.6-0.3,2.5
	c0,5.4,4.4,9.8,9.8,9.8s9.8-4.4,9.8-9.8c0-0.9-0.1-1.7-0.3-2.5h2.8V62.1z M-4.7,43.6c0,0.7-0.6,1.2-1.2,1.2h-3.7
	c-0.7,0-1.2-0.6-1.2-1.2v-3.7c0-0.7,0.6-1.2,1.2-1.2h3.7c0.7,0,1.2,0.6,1.2,1.2V43.6z"/>
</svg>
