<?xml version="1.0" encoding="utf-8"?>
<!-- Generator: Adobe Illustrator 19.0.0, SVG Export Plug-In . SVG Version: 6.00 Build 0)  -->
<svg version="1.1" id="Layer_1" xmlns="http://www.w3.org/2000/svg" xmlns:xlink="http://www.w3.org/1999/xlink" x="0px" y="0px"
	 viewBox="0 0 100 100" style="enable-background:new 0 0 100 100;" xml:space="preserve">
<style type="text/css">
	.st0{fill:#F1F1F1;}
	.st1{fill:#949494;}
	.st2{fill:#010101;}
</style>
<rect id="XMLID_1_" class="st0" width="100" height="100"/>
<g id="XMLID_9_" transform="translate(0,-952.36218)">
	<path id="XMLID_10_" class="st1" d="M-102.4,1020.8v2.2v42.9v2.2h2.2h63.6h2.2v-2.2V1023v-2.2h-2.2h-63.6H-102.4z M-97.9,1025.3
		h59.2v29.8l-11.7-12.8c-0.5-0.5-1.1-0.8-1.8-0.7c-0.5,0-1.1,0.3-1.5,0.7l-10,10.7l-14.8-16.5c-0.4-0.5-1.1-0.8-1.8-0.7
		c-0.6,0-1.1,0.3-1.5,0.7l-16.1,17.3V1025.3z M-63.2,1026.7c-3.6,0-6.7,3-6.7,6.7s3,6.7,6.7,6.7c3.6,0,6.7-3,6.7-6.7
		S-59.5,1026.7-63.2,1026.7z M-63.2,1031.2c1.3,0,2.2,1,2.2,2.2s-1,2.2-2.2,2.2c-1.3,0-2.2-1-2.2-2.2S-64.4,1031.2-63.2,1031.2z
		 M-80.2,1041.1l20.2,22.6h-37.9v-3.6L-80.2,1041.1z M-52.1,1047l13.3,14.6v2.1H-54l-6.7-7.5L-52.1,1047z"/>
</g>
<path id="XMLID_11_" class="st2" d="M50.7,64.5c-0.1-0.1-0.2-0.2-0.3-0.2c0,0,0,0,0,0c-0.1,0-0.2-0.1-0.4-0.1c-0.1,0-0.2,0-0.4,0.1
	c0,0,0,0,0,0c-0.1,0.1-0.2,0.1-0.3,0.2l-5,5c-0.4,0.4-0.4,1,0,1.4s1,0.4,1.4,0l3.3-3.3v9.6c0,0.5,0.4,1,1,1s1-0.4,1-1v-9.6l3.3,3.3
	c0.2,0.2,0.4,0.3,0.7,0.3s0.5-0.1,0.7-0.3c0.4-0.4,0.4-1,0-1.4L50.7,64.5z M79.5,20.3H20.5c-0.5,0-1,0.4-1,1v52.9c0,0.5,0.4,1,1,1
	h16.4c1.7,5.6,7,9.7,13.2,9.7s11.4-4.1,13.2-9.7h16.4c0.5,0,1-0.4,1-1V21.3C80.5,20.8,80.1,20.3,79.5,20.3z M50,83
	c-6.5,0-11.8-5.3-11.8-11.8c0-6.5,5.3-11.8,11.8-11.8s11.8,5.3,11.8,11.8C61.8,77.7,56.5,83,50,83z M78.5,73.2H63.6
	c0.1-0.7,0.2-1.4,0.2-2.1c0-7.6-6.2-13.8-13.8-13.8s-13.8,6.2-13.8,13.8c0,0.7,0.1,1.4,0.2,2.1H21.5V55.9l19-17.3l19.9,19
	c0.2,0.2,0.4,0.3,0.7,0.3c0.2,0,0.5-0.1,0.7-0.3l8.9-8.5l8,7.6V73.2z M78.5,54l-7.3-7c-0.4-0.4-1-0.4-1.4,0L61,55.5l-19.9-19
	c-0.4-0.4-1-0.4-1.3,0L21.5,53.2V22.3h57.1V54z"/>
</svg>
