<?xml version="1.0" encoding="utf-8"?>
<!-- Generator: Adobe Illustrator 19.0.0, SVG Export Plug-In . SVG Version: 6.00 Build 0)  -->
<svg version="1.1" id="Layer_1" xmlns="http://www.w3.org/2000/svg" xmlns:xlink="http://www.w3.org/1999/xlink" x="0px" y="0px"
	 viewBox="0 0 402.3 370.9" style="enable-background:new 0 0 402.3 370.9;" xml:space="preserve">
<g id="XMLID_3_">
	<path id="XMLID_4_" d="M5.8,61.8V0h110c9.6,0,17.5,2.9,23.6,8.8c6.1,5.8,9.1,13.6,9.1,23.4v132.6H81.8v-103H5.8z"/>
	<path id="XMLID_6_" d="M160.8,93.2V0h67.2v93.2H160.8z"/>
	<path id="XMLID_8_" d="M232.4,164.8V103h16.5V0h67.2v103h18.3V0h67.2v138.8c0,6.5-2.3,12.5-6.8,17.9c-4.6,5.4-9.8,8.1-15.8,8.1
		H232.4z"/>
	<path id="XMLID_10_" d="M2.2,200.2v-20.6h399.4v20.6H2.2z"/>
	<path id="XMLID_12_" d="M0,370.9V348h9.7V249l7.2-12.2H5v-23.2h80.5v157.3H53.6V236.8h-12v121.6c0,8.3-4.2,12.5-12.7,12.5H0z"/>
	<path id="XMLID_14_" d="M97.2,299.9v-86.2h31.9v81.2L97.2,299.9z"/>
	<path id="XMLID_16_" d="M132.3,370.9V348h9.7V249l7.2-12.2h-12v-23.2h80.5v157.3h-31.9V236.8h-12v121.6c0,8.3-4.2,12.5-12.7,12.5
		H132.3z"/>
	<path id="XMLID_18_" d="M226.5,236.8v-23.2h74.3c3,0,5.4,1.1,7.4,3.2c2,2.2,3,4.8,3,8v146h-31.9V236.8h-14.7v134.1h-31.9V249.3
		l7.8-12.5H226.5z"/>
	<path id="XMLID_20_" d="M316.8,370.9V348h9.7V249l7.2-12.2h-12v-23.2h80.5v157.3h-31.9V236.8h-12v121.6c0,8.3-4.2,12.5-12.7,12.5
		H316.8z"/>
</g>
</svg>
